<?xml version="1.0" encoding="utf-8"?>
<svg viewBox="0 0 500 500" xmlns="http://www.w3.org/2000/svg">
  <g id="face" transform="matrix(1, 0, 0, 1, -2258.194857868476, -142.59149382399755)">
    <g transform="matrix(1, 0, 0, 1, 5641.380943, 1963.510039)">
      <path class="cls-2" d="M -5063.822 -2727.069 C -5103.032 -2679.679 -5196.122 -2414.009 -5171.352 -2200.159 C -5146.352 -1986.159 -5015.952 -1688.709 -4781.772 -1677.159 C -4545.152 -1665.279 -4366.502 -1934.319 -4419.852 -2023.429 C -4480.612 -2122.679 -4811.952 -1933.799 -4810.942 -1933.029 C -4810.842 -1933.119 -4702.442 -2057.749 -4607.942 -2215.729 C -4513.942 -2373.879 -4433.842 -2565.379 -4503.942 -2703.479 C -4595.262 -2884.189 -4949.102 -2869.189 -5063.822 -2727.069 Z" style="fill: rgb(255, 243, 228); fill-rule: evenodd; stroke: rgb(100, 50, 25); stroke-linecap: round; stroke-linejoin: round; stroke-width: 50px;"/>
      <path class="cls-2" d="M -4146.665 -1834.138 C -4359.305 -1832.768 -4568.305 -2151.728 -4531.375 -2415.868 C -4501.535 -2627.348 -4327.795 -2766.428 -4138.435 -2758.978 C -3841.305 -2747.048 -3734.655 -2439.558 -3777.365 -2382.448 C -3811.365 -2336.888 -4097.745 -2367.078 -4097.795 -2366.688 C -4097.795 -2367.058 -3819.935 -2334.178 -3786.285 -2299.318 C -3761.285 -2273.808 -3806.185 -2136.698 -3836.505 -2110.558 C -3872.995 -2079.388 -4078.315 -2101.558 -4078.345 -2101.308 C -4078.345 -2101.458 -3901.015 -2077.708 -3867.715 -2043.748 C -3843.455 -2018.938 -3949.055 -1835.428 -4146.665 -1834.138 Z" style="fill: rgb(255, 243, 228); fill-rule: evenodd; stroke: rgb(100, 50, 25); stroke-linecap: round; stroke-linejoin: round; stroke-width: 50px;"/>
      <path class="cls-2" d="M -3534.804 -2710.596 C -3752.724 -2720.776 -3948.354 -2376.856 -3897.064 -2115.146 C -3856.284 -1905.576 -3685.144 -1776.006 -3499.964 -1786.756 C -3182.504 -1804.756 -3134.874 -2174.616 -3152.724 -2244.756 C -3167.584 -2303.066 -3546.463 -2274.12 -3546.383 -2273.65 C -3546.383 -2273.65 -3457.898 -2202.647 -3465.799 -2165.055 C -3477.061 -2111.475 -3558.694 -2073.529 -3557.624 -2088.491 C -3549.174 -2209.351 -3579.279 -2369.23 -3593.359 -2474.66 C -3598.629 -2514.27 -3533.957 -2290.186 -3506.377 -2284.696 C -3478.727 -2279.566 -3184.264 -2272.086 -3163.464 -2305.696 C -3145.264 -2334.946 -3260.134 -2697.606 -3534.804 -2710.596 Z" style="fill: rgb(255, 243, 228); fill-rule: evenodd; stroke: rgb(100, 50, 25); stroke-linecap: round; stroke-linejoin: round; stroke-width: 50px;"/>
      <path class="cls-2" d="M -1422.01 -1853.55 C -1403.084 -1873.711 -1391.092 -1973.565 -1389.073 -2059.78 C -1387.659 -2120.204 -1251.176 -2183.363 -1255.973 -2249.209 C -1267.615 -2409.007 -1332.153 -2660.369 -1360.563 -2675.759 C -1388.823 -2691.339 -1560.893 -2714.859 -1584.383 -2682.659 C -1599.783 -2661.659 -1607.803 -2338.939 -1607.773 -2338.939 C -1607.743 -2338.939 -1620.023 -2658.939 -1634.643 -2680.259 C -1656.993 -2713.079 -1829.963 -2664.839 -1851.823 -2652.389 C -1873.823 -2640.119 -1928.963 -2460.269 -1944.993 -2293.589 L -1706.472 -2046.67 C -1706.452 -2046.67 -1700.862 -1856.67 -1688.972 -1826.83 C -1677.462 -1798.33 -1454.25 -1819.61 -1422.01 -1853.55 Z" style="fill: rgb(255, 243, 228); fill-rule: evenodd; stroke: rgb(100, 50, 25); stroke-linecap: round; stroke-linejoin: round; stroke-width: 50px;"/>
      <path class="cls-2" d="M -2174.258 -2734.113 C -2392.178 -2744.293 -2587.808 -2400.373 -2536.518 -2138.663 C -2495.738 -1929.093 -2324.598 -1799.523 -2139.418 -1810.273 C -1821.958 -1828.273 -1774.328 -2198.133 -1792.178 -2268.273 C -1807.038 -2326.583 -2118.118 -2286.543 -2118.038 -2286.073 C -2118.038 -2286.073 -2158.218 -2089.013 -2156.398 -2114.473 C -2147.948 -2235.333 -2148.468 -2340.973 -2162.548 -2446.403 C -2167.818 -2486.013 -2140.128 -2313.703 -2112.548 -2308.213 C -2084.898 -2303.083 -1823.718 -2295.603 -1802.918 -2329.213 C -1784.718 -2358.463 -1899.588 -2721.123 -2174.258 -2734.113 Z" style="fill: rgb(255, 243, 228); fill-rule: evenodd; stroke: rgb(100, 50, 25); stroke-linecap: round; stroke-linejoin: round; stroke-width: 50px;"/>
      <path class="cls-2" d="M -2494.099 -1855.874 L -2536.309 -2432.224 C -2546.459 -2714.484 -3021.309 -2719.544 -3095.309 -2661.224 C -3169.889 -2604.224 -3251.949 -1909.574 -3216.809 -1876.224 C -3181.269 -1842.674 -2944.949 -1796.714 -2908.219 -1830.734 C -2871.409 -1865.044 -2899.869 -2107.054 -2899.929 -2107.054 C -2899.819 -2107.054 -2833.179 -1843.054 -2786.689 -1812.544 C -2752.469 -1790.434 -2521.509 -1816.374 -2494.099 -1855.874 Z M -2851.159 -2394.424 C -2859.099 -2335.044 -2886.159 -2299.894 -2886.159 -2299.894 C -2878.892 -2363.707 -2871.599 -2427.517 -2864.279 -2491.324 C -2864.279 -2491.324 -2843.139 -2454.354 -2851.159 -2394.424 Z" style="fill: rgb(255, 243, 228); fill-rule: evenodd; stroke: rgb(100, 50, 25); stroke-linecap: round; stroke-linejoin: round; stroke-width: 50px;"/>
    </g>
    <g id="shell-2" data-name="shell">
      <path class="cls-2" d="M3906.5,443.07c-33.23,51.48-88.54,394.36-41.1,604.1,47.69,209.83,181.17,410.73,370.08,412.23,236.62,1.79,452.92-306.75,390.2-389.21-71.45-91.83-380.67,132.93-379.58,133.59.07-.09,90.3-124.22,163.6-287,72.8-162.94,128.68-364.59,48.38-522.24C4365.93,213.67,4003.17,288.91,3906.5,443.07Z" transform="translate(-362.6 -224.86)" style="fill: rgb(255, 243, 228); fill-rule: evenodd; stroke: rgb(100, 50, 25); stroke-linecap: round; stroke-linejoin: round; stroke-width: 50px;"/>
      <path class="cls-2" d="M3361,360.35c-39.21,47.39-132.3,313.06-107.53,526.91,25,214,155.4,511.45,389.58,523,236.62,11.88,415.27-257.16,361.92-346.27-60.76-99.25-392.1,89.63-391.09,90.4.1-.09,108.5-124.72,203-282.7,94-158.15,174.1-349.65,104-487.75C3829.56,203.23,3475.72,218.23,3361,360.35Z" transform="translate(-362.6 -224.86)" style="fill: rgb(255, 243, 228); fill-rule: evenodd; stroke: rgb(100, 50, 25); stroke-linecap: round; stroke-linejoin: round; stroke-width: 50px;"/>
      <path class="cls-2" d="M1322.84,325.77c-140.87,6.53-297.61,124-336.5,274.43C901.93,931.1,1237,1041.24,1236,1042c.14-.17-152.22-57.45-181.43-47.49-34.06,11.2-168.3,110.57-156.47,158.87,33.76,138.65,173.76,317.8,429.36,302.33,232.13-13.78,395.39-139.92,400.47-376.21,5.48-254.38-186.33-331.66-246.73-363.42C1417,681.79,1369.93,662.59,1370,662.58c.17-.21,177.33,60.81,217,47.17,30.79-10.82,99.29-109.46,93.67-144.06C1665.84,473.46,1485.18,317.88,1322.84,325.77Z" transform="translate(-362.6 -224.86)" style="fill: rgb(255, 243, 228); fill-rule: evenodd; stroke: rgb(100, 50, 25); stroke-linecap: round; stroke-linejoin: round; stroke-width: 50px;"/>
      <path class="cls-2" d="M1652.8,375.54c-39.92,43.43-33.65,277.25-16.51,462.19,17.58,184.9,109.11,510.46,143,529.45,34.48,18.55,239.87,48.34,267.49,9.13,17.94-25.88,27.25-370.29,27.35-370.3s15.13,341.31,32.62,368.21c26.72,40.8,232.91-13.6,259.5-27.56,26.16-14.35,96-235.51,120.74-442.09,24.29-206.63,49.06-509.37,13.47-550.22-35.32-41.75-381-65.81-406.91-11.47-15.83,32.33-31,326.47-30.94,326.46s-10-294.12-25.38-331.45C2022.4,301,1692.44,331.27,1652.8,375.54Z" transform="translate(-362.6 -224.86)" style="fill: rgb(255, 243, 228); fill-rule: evenodd; stroke: rgb(100, 50, 25); stroke-linecap: round; stroke-linejoin: round; stroke-width: 50px;"/>
      <path class="cls-2" d="M2883.13,249.88c-137.48,1.07-268.82,104.33-355.5,248-87,143.62-129.4,327.6-97,490.1,52.73,260.29,267.83,422.43,492.62,410.34,351.92-18.48,484.59-393.25,433-466.37-41.83-59-395.28-22.32-395-21.43-.19-.83,342.08-41,384.34-82.05,31.18-31.08-24.12-202.53-62.61-235.5-46.08-40.22-304.82-12.75-304.69-12.28-.07-.35,222.89-30.13,265-71.2C3274.47,479.4,3138.7,247.93,2883.13,249.88Z" transform="translate(-362.6 -224.86)" style="fill: rgb(255, 243, 228); fill-rule: evenodd; stroke: rgb(100, 50, 25); stroke-linecap: round; stroke-linejoin: round; stroke-width: 50px;"/>
    </g>
  </g>
</svg>